<svg xmlns="http://www.w3.org/2000/svg" xmlns:xlink="http://www.w3.org/1999/xlink" width="126" height="88" viewBox="0 0 126 88"><defs><path id="pnq7a" d="M404 20.302l29.371 8.282 29.396 8.29a4.078 4.078 0 0 1 2.976 3.924h.009V73.951a4.088 4.088 0 0 1-3.24 3.997l-29.141 8.217-29.395 8.289a4.061 4.061 0 0 1-2.225-.008l-29.372-8.281-29.394-8.288a4.083 4.083 0 0 1-2.978-3.926H340V40.798a4.09 4.09 0 0 1 3.24-3.998l29.14-8.216 29.394-8.289a4.06 4.06 0 0 1 2.225.007z"/><path id="pnq7b" d="M431.17 36.436l-28.294-7.978-28.294 7.978-26.41 7.447v26.982l26.41 7.448 28.294 7.978 28.293-7.978 26.41-7.447V43.883z"/><path id="pnq7c" d="M415.586 14.54V9.147c0-.809.661-1.47 1.47-1.47h3.114c.81 0 1.47.661 1.47 1.47v7.603h4.283c.124 0 .23.012.35.042 3.164.775 7.151 2.935 8.062 6.329.357 1.333.727 2.668 1.08 4.003h16.251l1.156-.118c.051-.005.096-.007.147-.007h3.054c.809 0 1.47.662 1.47 1.47v17.293c.354 2.47-1.377 4.332-3.912 4.332h-.982a8.036 8.036 0 0 1-14.038 0h-7.543c-.457.788-1.35 1.282-2.415 1.282h-43.562c-1.784.154-2.826-1.465-2.826-3.122v-2.04h-1.031a8.036 8.036 0 0 1-15.67 2.48 8.036 8.036 0 0 1-15.668-2.48h-.146c-.808 0-1.47-.662-1.47-1.47v-3.177c0-.47.2-.876.573-1.164 2.66-2.054 6.645-3.709 10.05-3.84.029-.041.056-.08.088-.117 1.24-1.543 3.485-2.382 5.42-2.382h10.045c1.452 0 2.92.928 2.92 2.524v.3h10.727V13.485c0-.809.659-1.47 1.468-1.47h15.536c3.426-.173 7.4.658 10.529 2.526z"/><path id="pnq7d" d="M452.97 28.469h3.053v17.406s.459 2.748-2.442 2.748h-23.726s.213 1.28-1.251 1.28h-43.637s-1.282.153-1.282-1.65v-3.51h-33.984v-3.177s4.58-3.543 9.588-3.543h11.864v-.656h-11.068s1.467-1.834 4.276-1.834h10.045s1.45.032 1.45 1.054v1.77h13.665V13.485h15.575s8.34-.457 12.616 4.734h8.21s5.965 1.447 6.994 5.283l1.363 5.09h17.462l1.228-.123z"/><path id="pnq7e" d="M357.881 39.614a6.564 6.564 0 0 1 6.565 6.565 6.564 6.564 0 0 1-6.565 6.565 6.564 6.564 0 0 1-6.565-6.565 6.564 6.564 0 0 1 6.565-6.565z"/><path id="pnq7f" d="M357.881 43.065a3.113 3.113 0 1 1 0 6.228 3.113 3.113 0 1 1 0-6.228z"/><path id="pnq7g" d="M373.149 39.614a6.564 6.564 0 0 1 6.565 6.565 6.564 6.564 0 0 1-6.565 6.565 6.564 6.564 0 0 1-6.565-6.565 6.564 6.564 0 0 1 6.565-6.565z"/><path id="pnq7h" d="M373.15 43.065a3.113 3.113 0 1 1 0 6.228 3.113 3.113 0 1 1 0-6.228z"/><path id="pnq7i" d="M445.581 39.614a6.564 6.564 0 0 1 6.565 6.565 6.564 6.564 0 0 1-6.565 6.565 6.565 6.565 0 1 1 0-13.13z"/><path id="pnq7j" d="M445.582 43.065a3.115 3.115 0 1 1 0 6.229 3.115 3.115 0 0 1 0-6.23z"/><path id="pnq7k" d="M417.056 9.146h3.114v15.879h-3.114z"/><path id="pnq7l" d="M385.075 47.926v-4.641h8.307v-1.006h21.712v1.098h-20.948v4.183h-.793v-3.39h-7.329v3.145s-.03.672-.949.611z"/><path id="pnq7m" d="M420.331 37.997V23.615h-1.984l1.45-.55V9.676h-1.723v.962h.779V22.79l-1.91 1.114h2.23v13.603l1.158.49z"/><path id="pnq7n" d="M417.056 19.89h-4.43s-2.076-3.483-4.764-3.483h-14.35l-2.109-.824h18.964s2.748.61 4.092 1.83c1.344 1.222 1.374 1.344 1.374 1.344h1.223v1.133zm14.868 3.756h-3.726s-.947-3.756-3.48-3.756h-4.548v-1.133h4.76s5.254.854 6.994 4.889z"/><path id="pnq7o" d="M453.394 42.044a.292.292 0 1 1-.471.348c-.967-1.3-2.009-2.351-3.212-3.052-1.193-.693-2.553-1.047-4.169-.961-1.164.06-2.371.346-3.445.967a6.446 6.446 0 0 0-2.364 2.376c-.6 1.033-.985 1.894-1.296 2.59-.753 1.69-1.118 2.505-2.867 2.505h-4.09a.294.294 0 0 1 0-.587h4.09c1.372 0 1.685-.7 2.334-2.156.32-.714.715-1.598 1.322-2.645a7.03 7.03 0 0 1 2.578-2.59h.002c1.162-.67 2.458-.98 3.706-1.045 1.739-.09 3.203.291 4.492 1.04 1.278.743 2.375 1.849 3.39 3.21zm.74-12.573a.489.489 0 1 1 .977 0v12.687a.489.489 0 1 1-.977 0z"/><path id="pnq7p" d="M344.4 53.958h116.952v-2.043H344.4z"/><path id="pnq7q" d="M448.129 72.962h-5.513v-5.65c0-.253-.03-.47-.09-.65a.966.966 0 0 0-.269-.424 1.351 1.351 0 0 0-.46-.214 2.402 2.402 0 0 0-.638-.078h-1.838v7.016h-5.493v-17.06h5.493v5.605l3.832-5.605h6.142l-5.827 6.727c.807.059 1.509.2 2.106.425.598.224 1.076.515 1.435.874.373.36.654.743.84 1.154.187.413.28.848.28 1.312zm-26.504-5.38c0 .21.037.389.112.538a.87.87 0 0 0 .336.359 1.889 1.889 0 0 0 1.01.268h4.795v4.215h-4.842c-.91 0-1.767-.098-2.565-.291a9.015 9.015 0 0 1-2.254-.875c-.702-.387-1.229-.896-1.58-1.523-.35-.63-.527-1.376-.527-2.242v-7.196c0-.867.176-1.614.527-2.241.351-.628.878-1.136 1.58-1.525a9.12 9.12 0 0 1 2.265-.875 10.908 10.908 0 0 1 2.554-.292h4.842v4.126h-4.796c-.194 0-.373.025-.538.079a2.156 2.156 0 0 0-.471.213.873.873 0 0 0-.336.346 1.126 1.126 0 0 0-.112.528zm-11.509-11.68v12.374c0 .882-.18 1.645-.538 2.288-.36.642-.89 1.157-1.591 1.547a8.736 8.736 0 0 1-2.265.862 11.31 11.31 0 0 1-2.554.28c-.898 0-1.75-.093-2.557-.28a8.7 8.7 0 0 1-2.263-.862c-.703-.39-1.23-.902-1.582-1.536-.35-.635-.526-1.394-.526-2.275V55.902h5.493v11.97c0 .15.034.296.1.438.067.142.152.274.257.393.121.12.267.21.438.268.172.06.385.091.64.091.254 0 .478-.03.671-.09a.947.947 0 0 0 .448-.269c.121-.119.207-.25.258-.393.054-.142.078-.288.078-.437v-11.97zm-28.523 7.017h1.39c.24 0 .47-.029.695-.09.224-.06.434-.141.627-.246.196-.12.342-.269.438-.448.097-.18.145-.397.145-.65 0-.255-.048-.479-.145-.673a1.006 1.006 0 0 0-.438-.448 2.09 2.09 0 0 0-.627-.257 2.987 2.987 0 0 0-.695-.079h-1.39zm0 10.043h-5.491v-17.06h7.128c.896 0 1.753.098 2.567.292a8.698 8.698 0 0 1 2.252.875c.702.373 1.234.86 1.593 1.457.357.597.537 1.293.537 2.085v.784c0 .539-.082 1.035-.248 1.492a3.433 3.433 0 0 1-.76 1.22 5.583 5.583 0 0 1-1.099.964 6.66 6.66 0 0 1-1.3.672l4.617 7.22h-5.985l-3.811-6.57zm-11.262-17.06v4.126h-4.214v12.934h-5.468V60.028h-4.194v-4.126z"/><path id="pnq7r" d="M425.448 74.427v1.34h-1.368v4.203h-1.778v-4.203h-1.36v-1.34zm-7.638 1.34v.94h.451c.079 0 .153-.01.226-.03a.981.981 0 0 0 .205-.08.398.398 0 0 0 .142-.145.454.454 0 0 0 .046-.212.493.493 0 0 0-.046-.217.331.331 0 0 0-.142-.145.715.715 0 0 0-.205-.086 1.047 1.047 0 0 0-.226-.025zm0 4.203h-1.783v-5.543h2.314c.292 0 .57.032.834.096.265.062.508.156.732.283.228.122.4.279.518.474.115.194.174.42.174.676v.256c0 .174-.027.336-.08.483-.053.15-.137.281-.247.398-.107.121-.226.226-.357.313-.132.087-.272.16-.424.219l1.5 2.345h-1.942l-1.24-2.135zm-4.74-1.268c.082 0 .152-.01.21-.028a.308.308 0 0 0 .14-.09c.038-.038.068-.08.09-.125a.315.315 0 0 0 .034-.143V76.08a.284.284 0 0 0-.034-.137.455.455 0 0 0-.09-.124.291.291 0 0 0-.14-.087.661.661 0 0 0-.21-.03.657.657 0 0 0-.21.03.344.344 0 0 0-.147.087.494.494 0 0 0-.08.124.327.327 0 0 0-.03.137v2.236c0 .048.01.096.03.143.02.046.047.087.08.126.04.039.088.07.146.089a.718.718 0 0 0 .212.028zm-2.25-.247v-2.5c0-.28.057-.522.17-.726.115-.205.285-.37.515-.496.227-.126.47-.22.73-.287.262-.065.539-.099.836-.099.295 0 .574.034.837.1.261.065.507.16.734.286.23.126.4.291.514.496.114.204.17.446.17.727v2.499c0 .286-.056.533-.17.738a1.267 1.267 0 0 1-.514.5c-.227.125-.473.22-.734.28-.263.06-.542.09-.837.09a3.69 3.69 0 0 1-.836-.09 2.816 2.816 0 0 1-.73-.28c-.23-.127-.4-.294-.514-.5a1.499 1.499 0 0 1-.17-.738zm-3.095-2.688v1.012h.422c.083 0 .16-.01.229-.029a.749.749 0 0 0 .201-.087.335.335 0 0 0 .146-.156.562.562 0 0 0 .044-.237.54.54 0 0 0-.044-.229.327.327 0 0 0-.146-.156.842.842 0 0 0-.43-.117zm-1.784-1.34h2.229c.3 0 .583.034.848.103.265.068.508.167.732.299.228.13.398.295.512.49.116.198.172.425.172.681v.489c0 .256-.056.485-.172.688-.114.2-.284.371-.512.514-.224.14-.467.245-.732.316a3.34 3.34 0 0 1-.848.105h-.445v1.858h-1.784zm-.532 3.49v.538a1.275 1.275 0 0 1-.174.553 1.81 1.81 0 0 1-.444.494 1.858 1.858 0 0 1-.699.35 3.488 3.488 0 0 1-.948.118h-2.255V78.6h2.175c.104 0 .192-.006.27-.022a.466.466 0 0 0 .182-.066.26.26 0 0 0 .107-.109.33.33 0 0 0 .032-.145v-.167a.305.305 0 0 0-.032-.143.372.372 0 0 0-.1-.113.458.458 0 0 0-.15-.077.69.69 0 0 0-.191-.025h-.333a.2.2 0 0 1-.053-.007h-.131a.07.07 0 0 1-.036-.007h-.066a2.762 2.762 0 0 1-.67-.107 1.94 1.94 0 0 1-.569-.264 1.191 1.191 0 0 1-.403-.418 1.498 1.498 0 0 1-.178-.58v-.021l-.009-.005v-.375a.07.07 0 0 1 .009-.036c.014-.222.073-.425.178-.604.105-.18.254-.338.448-.473.199-.137.417-.238.657-.306.242-.07.505-.103.791-.103h2.12v1.34h-2.04a.684.684 0 0 0-.184.022.24.24 0 0 0-.114.065.277.277 0 0 0-.062.098.414.414 0 0 0 0 .235c.012.035.035.07.069.098.03.028.067.051.117.069a.762.762 0 0 0 .182.032l.503.021c.291 0 .552.036.785.103.233.068.432.171.598.306.17.135.304.28.405.43.098.15.165.308.199.473v.029c0 .01.004.017.007.023v.07c0 .011.004.019.007.024v.052zm-6.982-3.49h1.784v5.87l-2.986-2.345v2.018h-1.783v-5.804l2.985 2.511zm-5.745 1.522l-.386 2.097h.785l-.4-2.097zm1.194-1.522l1.26 5.543h-1.735l-.08-.548h-1.258l-.08.548h-1.653l-.054-.084 1.241-5.459zm-6.728 1.34v.94h.451c.077 0 .153-.01.226-.03a.982.982 0 0 0 .204-.08.38.38 0 0 0 .14-.145.434.434 0 0 0 .049-.212.47.47 0 0 0-.048-.217.318.318 0 0 0-.14-.145.716.716 0 0 0-.205-.086 1.058 1.058 0 0 0-.226-.025zm0 2.068v2.135h-1.785v-5.543h2.316c.292 0 .57.032.834.096.265.062.508.156.732.283.228.122.4.279.516.474.117.194.176.42.176.676v.256c0 .174-.027.336-.08.483-.054.15-.137.281-.249.398-.107.121-.226.226-.357.313-.13.087-.27.16-.422.219l1.447 2.26-.02.085h-1.871zm-2.338-3.408v1.34h-1.369v4.203h-1.777v-4.203h-1.362v-1.34z"/></defs><g><g transform="translate(-340 -7)"><use fill="#14214e" xlink:href="#pnq7a"/></g><g transform="translate(-340 -7)"><use fill="#fff" xlink:href="#pnq7b"/></g><g transform="translate(-340 -7)"><use fill="#fff" xlink:href="#pnq7c"/></g><g transform="translate(-340 -7)"><use fill="#14214e" xlink:href="#pnq7d"/></g><g transform="translate(-340 -7)"><use fill="#14214e" xlink:href="#pnq7e"/></g><g transform="translate(-340 -7)"><use fill="#fff" xlink:href="#pnq7f"/></g><g transform="translate(-340 -7)"><use fill="#14214e" xlink:href="#pnq7g"/></g><g transform="translate(-340 -7)"><use fill="#fff" xlink:href="#pnq7h"/></g><g transform="translate(-340 -7)"><use fill="#14214e" xlink:href="#pnq7i"/></g><g transform="translate(-340 -7)"><use fill="#fff" xlink:href="#pnq7j"/></g><g transform="translate(-340 -7)"><use fill="#14214e" xlink:href="#pnq7k"/></g><g transform="translate(-340 -7)"><use fill="#fff" xlink:href="#pnq7l"/></g><g transform="translate(-340 -7)"><use fill="#fff" xlink:href="#pnq7m"/></g><g transform="translate(-340 -7)"><use fill="#fff" xlink:href="#pnq7n"/></g><g transform="translate(-340 -7)"><use fill="#fff" xlink:href="#pnq7o"/></g><g transform="translate(-340 -7)"><use fill="#14214e" xlink:href="#pnq7p"/></g><g transform="translate(-340 -7)"><use fill="#c70041" xlink:href="#pnq7q"/></g><g transform="translate(-340 -7)"><use fill="#c70041" xlink:href="#pnq7r"/></g></g></svg>