<svg xmlns="http://www.w3.org/2000/svg" xmlns:xlink="http://www.w3.org/1999/xlink" width="73" height="27" viewBox="0 0 73 27"><defs><path id="uh7ca" d="M241.908 2308.28v-.948l-.437.948h-3.793l-.438-1.021v.948h-7.075l-.802-1.97h-1.459l-.875 1.97h-3.647v-5.908l2.699-6.054h5.178l.73 1.75v-1.823h6.272l1.386 2.918 1.386-2.918h19.766a3.355 3.355 0 0 1 1.75.438v-.438h5.034v.657a4.085 4.085 0 0 1 2.26-.657h8.826l.803 1.75v-1.75h5.689l1.02 1.75v-1.75h5.398v12.108h-5.616l-1.313-2.115v2.115h-6.929l-.948-2.188h-1.386l-.948 2.188h-4.158a5.398 5.398 0 0 1-2.698-.875v.875h-8.315v-2.844c0-.438-.292-.365-.292-.365h-.292v3.21z"/><path id="uh7cb" d="M237.75 2310.906h10.942l1.604 1.823 1.605-1.823h8.46a3.866 3.866 0 0 1 1.532.438v-.438h7.513a3.866 3.866 0 0 1 1.75.51v-.51h9.628v.438a3.282 3.282 0 0 1 1.605-.438h6.273v.438a3.866 3.866 0 0 1 1.604-.438h4.96v11.378a2.699 2.699 0 0 1-1.97.73h-6.49v-.365c-.475.241-1 .366-1.532.365h-17.36v-2.918c0-.292-.146-.365-.364-.365h-.22v3.283h-5.397v-3.283a3.647 3.647 0 0 1-1.604.292h-1.97v2.918h-6.637l-1.532-1.824-1.604 1.897H237.75z"/><path id="uh7cc" d="M272.25 2312.656h6.93v1.897h-4.814v1.604h4.668v1.605h-4.668v1.678h4.814v1.823h-6.93z"/><path id="uh7cd" d="M292.455 2316.012c2.552.145 2.771 1.458 2.771 2.771a2.48 2.48 0 0 1-2.698 2.48h-4.45v-1.823h3.501c.584 0 1.46 0 1.46-.803 0-.802-.147-.656-.803-.729h-1.459c-2.334-.073-2.845-1.24-2.845-2.626a2.334 2.334 0 0 1 2.48-2.48h4.45v1.75h-3.283c-.729 0-1.531-.072-1.531.73 0 .803.364.657.875.657z"/><path id="uh7ce" d="M284.504 2316.012c2.553.145 2.772 1.458 2.772 2.771a2.48 2.48 0 0 1-2.699 2.48h-4.376v-1.823h3.428c.584 0 1.459 0 1.459-.803 0-.802-.146-.656-.803-.729h-1.458c-2.334-.073-2.845-1.24-2.845-2.626a2.334 2.334 0 0 1 2.48-2.48h4.45v1.75h-3.21c-.73 0-1.532-.072-1.532.73 0 .803.365.657.876.657z"/><path id="uh7cf" d="M256.277 2316.595v-2.042h2.626a1.021 1.021 0 0 1 0 2.042zm-2.115 3.866l-2.99-3.574 2.99-3.355zm-8.023-1.021h-4.887v-1.678h4.668v-1.605h-4.668v-1.604h5.105l2.043 2.334zm13.42-6.71h-7.366l-2.407 2.625-2.334-2.699h-8.243v8.607h8.024l2.553-2.844 2.407 2.844h4.011v-2.917h2.845c1.094 0 3.063-.073 3.063-3.064a2.407 2.407 0 0 0-2.553-2.553z"/><path id="uh7cg" d="M267.947 2316.522h-2.626v-1.97h2.626a1.021 1.021 0 0 1 1.167.949c0 .584-.291 1.021-1.167 1.021zm1.824.875a2.334 2.334 0 0 0 1.459-2.334c0-1.823-1.46-2.26-2.553-2.26h-5.47v8.46h2.114v-2.99h2.772c.73 0 1.021.73 1.021 1.458v1.605h2.043v-1.823c0-1.386-.438-2.043-1.386-2.116z"/><path id="uh7ch" d="M264.082 2306.493v-8.57h2.115v8.57z"/><path id="uh7ci" d="M246.868 2297.923h6.856v1.823h-4.814v1.605h4.668v1.605h-4.668v1.75h4.814v1.75h-6.856z"/><path id="uh7cj" d="M259.705 2301.716h-2.626v-1.97h2.626a1.021 1.021 0 0 1 1.167.948c0 .584-.364 1.022-1.167 1.022zm1.824.875a2.334 2.334 0 0 0 1.458-2.334c0-1.824-1.458-2.261-2.552-2.261h-5.47v8.46h2.114v-2.99h2.772c.73 0 1.021.73 1.021 1.459v1.605h2.043v-1.824c-.073-1.386-.438-2.042-1.386-2.115z"/><path id="uh7ck" d="M227.175 2302.737l1.24-2.99 1.312 2.99zm14.806-4.814l-2.553 5.762-2.553-5.762h-3.355v8.242l-3.647-8.242h-2.771l-3.793 8.534h2.188l.802-1.897h4.23l.803 1.897h4.23v-6.346l2.845 6.346h1.897l2.844-6.273v6.273h2.115v-8.534z"/><path id="uh7cl" d="M274.95 2302.737l1.24-2.99 1.312 2.99zm12.91-4.814v5.908l-3.575-5.908h-3.063v8.023l-3.574-8.023h-2.845l-2.917 6.637h-1.313c-.51-.073-1.313-.437-1.313-1.97v-.656c0-2.042 1.094-2.188 2.48-2.188h1.313v-1.823h-2.699c-.948 0-3.063.73-3.136 4.23-.073 2.407.948 4.304 3.282 4.304h2.772l.802-1.897h4.23l.876 1.897h4.157v-6.273l3.793 6.273h2.845v-8.534z"/></defs><g><g transform="translate(-223 -2296)"><g><use fill="#fff" xlink:href="#uh7ca"/></g><g><use fill="#fff" xlink:href="#uh7cb"/></g><g><use fill="#147591" xlink:href="#uh7cc"/></g><g><use fill="#147591" xlink:href="#uh7cd"/></g><g><use fill="#147591" xlink:href="#uh7ce"/></g><g><use fill="#147591" xlink:href="#uh7cf"/></g><g><use fill="#147591" xlink:href="#uh7cg"/></g><g><use fill="#147591" xlink:href="#uh7ch"/></g><g><use fill="#147591" xlink:href="#uh7ci"/></g><g><use fill="#147591" xlink:href="#uh7cj"/></g><g><use fill="#147591" xlink:href="#uh7ck"/></g><g><use fill="#147591" xlink:href="#uh7cl"/></g></g></g></svg>