<svg xmlns="http://www.w3.org/2000/svg" xmlns:xlink="http://www.w3.org/1999/xlink" width="44" height="26" viewBox="0 0 44 26"><defs><path id="3rhra" d="M1346.067 1931.964v-15.874h1.517v15.874zm-1.517 0v-15.874h.759v15.874zm-2.982 0v-15.874h2.275v15.874zm-3.792 0v-15.874h1.517v15.874zm-2.275 0v-15.874h1.517v15.874zm-3.033 0v-15.874h1.517v15.874zm-3.033 0v-15.874h1.516v15.874zm-3.792 0v-15.874h1.517v15.874zm-2.982 0v-15.874h.758v15.874zm-1.517 0v-15.874h.758v15.874zm-1.517 0v-15.874h.759v15.874zm-3.791 0v-15.874h1.516v15.874zm-3.033 0v-15.874h.758v15.874zm-3.792 0v-15.874h.758v15.874zm-2.275 0v-15.874h.758v15.874zm-2.275 0v-15.874h1.517v15.874z"/><path id="3rhrb" d="M1309.415 1939.244c.742 0 1.113.253 1.113.758a.758.758 0 0 1-.253.607 1.264 1.264 0 0 1-.809.202h-.86v-1.618zm-.859-2.427h.708c.295-.026.591.026.86.152.17.11.266.303.252.505a.607.607 0 0 1-.253.556 1.365 1.365 0 0 1-.758.152h-.758zm-1.264 5.056h2.275c.592.04 1.18-.12 1.668-.455.405-.313.631-.804.607-1.315a1.567 1.567 0 0 0-.253-.96 1.365 1.365 0 0 0-.86-.506c.283-.03.54-.176.709-.404.182-.267.27-.587.252-.91a1.314 1.314 0 0 0-.606-1.214 3.69 3.69 0 0 0-1.87-.353h-1.922z"/><path id="3rhrc" d="M1314.774 1938.84a2.578 2.578 0 0 0 .405 1.567c.291.33.724.5 1.162.455 1.045 0 1.567-.691 1.567-2.073 0-1.382-.522-2.056-1.567-2.022a1.365 1.365 0 0 0-1.162.505 2.528 2.528 0 0 0-.405 1.567zm4.5 0c.05.843-.22 1.674-.759 2.325a2.78 2.78 0 0 1-2.174.809 2.78 2.78 0 0 1-2.174-.81 3.337 3.337 0 0 1-.758-2.325 3.286 3.286 0 0 1 .759-2.325c.566-.586 1.359-.9 2.173-.86a2.78 2.78 0 0 1 2.174.81c.55.664.822 1.515.758 2.375z"/><path id="3rhrd" d="M1321.195 1941.873v-6.117h1.314v5.055h2.477v1.062z"/><path id="3rhre" d="M1330.193 1941.873h-3.539v-6.117h3.54v1.061h-2.225v1.365h2.072v1.062h-2.072v1.567h2.224z"/><path id="3rhrf" d="M1334.49 1941.873h-1.314v-5.056h-1.618v-1.061h4.651v1.061h-1.719z"/><path id="3rhrg" d="M1338.838 1938.84a2.578 2.578 0 0 0 .404 1.567c.281.349.716.538 1.163.505 1.045 0 1.567-.69 1.567-2.073 0-1.381-.522-2.072-1.567-2.072a1.365 1.365 0 0 0-1.163.505 2.528 2.528 0 0 0-.404 1.567zm4.5 0c.05.843-.221 1.674-.76 2.325a3.286 3.286 0 0 1-4.347 0 3.337 3.337 0 0 1-.758-2.326 3.286 3.286 0 0 1 .758-2.325 2.831 2.831 0 0 1 2.174-.809 2.78 2.78 0 0 1 2.174.809c.538.651.809 1.482.758 2.325z"/></defs><g><g transform="translate(-1304 -1916)"><use fill="#6b6b6b" xlink:href="#3rhra"/></g><g transform="translate(-1304 -1916)"><g><use fill="#6b6b6b" xlink:href="#3rhrb"/></g><g><use fill="#6b6b6b" xlink:href="#3rhrc"/></g><g><use fill="#6b6b6b" xlink:href="#3rhrd"/></g><g><use fill="#6b6b6b" xlink:href="#3rhre"/></g><g><use fill="#6b6b6b" xlink:href="#3rhrf"/></g><g><use fill="#6b6b6b" xlink:href="#3rhrg"/></g></g></g></svg>