<svg xmlns="http://www.w3.org/2000/svg" xmlns:xlink="http://www.w3.org/1999/xlink" width="27" height="26" viewBox="0 0 27 26"><defs><path id="csi1a" d="M1394.549 1915.635c6.729 0 12.183 5.455 12.183 12.184 0 6.729-5.454 12.183-12.183 12.183s-12.184-5.454-12.184-12.183 5.455-12.184 12.184-12.184z"/><path id="csi1b" d="M1390.96 1926.858l-3.742 1.618v-.202a2.123 2.123 0 0 1 3.741-1.416zm-1.618-2.325a3.741 3.741 0 0 1 3.64 2.882l-1.517.657-1.567.657-3.69 1.618a3.741 3.741 0 0 1 3.134-5.814z"/><path id="csi1c" d="M1391.92 1930.953a3.69 3.69 0 0 1-4.651.455l.86-1.314c.844.545 1.951.44 2.679-.253l1.112 1.163z"/><path id="csi1d" d="M1393.437 1930.043v-7.077h1.365v6.875a.152.152 0 0 0 .1.152l1.163.455-.505 1.365-1.416-.556c-.505-.203-.707-.556-.707-1.214z"/><path id="csi1e" d="M1398.492 1929.942a2.123 2.123 0 0 1-.152-3.235l-.859-1.416a3.792 3.792 0 0 0 .202 6.067z"/><path id="csi1f" d="M1399.099 1926.252l.707-.101a2.123 2.123 0 0 1 2.023 1.365l1.668-.152a3.741 3.741 0 0 0-5.055-2.578z"/><path id="csi1g" d="M1401.98 1928.324a2.123 2.123 0 0 1-2.123 2.023h-.506l-.657 1.516a3.792 3.792 0 0 0 4.955-3.437z"/></defs><g><g transform="translate(-1381 -1915)"><g><g><use fill="#050013" xlink:href="#csi1a"/><use fill="#fff" fill-opacity="0" stroke="#231f20" stroke-miterlimit="50" stroke-width=".29" xlink:href="#csi1a"/></g><g><use fill="#fff" xlink:href="#csi1b"/></g><g><use fill="#fff" xlink:href="#csi1c"/></g><g><use fill="#fff" xlink:href="#csi1d"/></g></g><g><g><use fill="#009dd7" xlink:href="#csi1e"/></g><g><use fill="#fff200" xlink:href="#csi1f"/></g><g><use fill="#e33206" xlink:href="#csi1g"/></g></g></g></g></svg>