<svg xmlns="http://www.w3.org/2000/svg" xmlns:xlink="http://www.w3.org/1999/xlink" width="35" height="27" viewBox="0 0 35 27"><defs><path id="rzxva" d="M1410.78 1984.331h.302v.354h-.404v-.354h.101v.253h.05v-.101l.102.101h.05l-.1-.101zm-.102.506v-.101h.404v.1zm-25.884-1.517a.86.86 0 0 0 .81.91.86.86 0 1 0-.86-.91zm2.225 1.416h-.607v-.354a1.062 1.062 0 0 1-.86.404 1.466 1.466 0 1 1 0-2.932c.335-.008.653.142.86.405v-.354h.607zm20.575-1.416a.86.86 0 1 0 1.716.101.86.86 0 0 0-1.716-.1zm2.275 1.416h-.606v-.354a1.062 1.062 0 0 1-.86.404 1.466 1.466 0 1 1 0-2.932c.334-.008.653.142.86.405v-1.467h.606zm-15.267-2.376a.708.708 0 0 0-.758.707h1.466a.708.708 0 0 0-.708-.657zm0-.506zm0 0a1.365 1.365 0 0 1 1.314 1.416v.252h-2.072a.758.758 0 0 0 .859.708c.296-.007.581-.114.809-.303l.303.455a1.719 1.719 0 0 1-1.163.404 1.466 1.466 0 0 1-.05-2.932zm7.33 1.466a.86.86 0 1 0 1.716.101.86.86 0 0 0-1.716-.1zm2.275 1.416h-.607v-.354a1.062 1.062 0 0 1-.859.404 1.466 1.466 0 1 1 0-2.932c.334-.008.653.142.86.405v-.354h.606zm-5.712-1.466a1.416 1.416 0 0 1 1.516-1.466c.37-.014.73.112 1.011.353l-.303.506a1.213 1.213 0 0 0-.708-.253.91.91 0 0 0 0 1.77c.257-.008.505-.096.708-.253l.303.505c-.28.242-.641.368-1.01.354a1.415 1.415 0 0 1-1.517-1.466zm7.886-1.517l.455.101-.202.556h-.405c-.404 0-.606.253-.606.708v1.517h-.607v-2.78h.607v.353a.809.809 0 0 1 .758-.404zm-16.582.86a1.82 1.82 0 0 0-.86-.253c-.353 0-.555.151-.555.303s.202.202.455.253h.303c.607.1.96.354.96.86 0 .505-.454.91-1.263.91a2.022 2.022 0 0 1-1.214-.355l.304-.455c.26.2.58.307.91.304.455 0 .657-.203.657-.354 0-.152-.152-.253-.506-.304h-.303c-.607-.05-.96-.252-.96-.808 0-.557.454-.91 1.162-.91.41-.016.814.09 1.163.303zm8.089-.86l.455.101-.202.556h-.354c-.405 0-.607.253-.607.708v1.567h-.607v-2.78h.557v.354a.809.809 0 0 1 .758-.405zm-5.207.708h-1.011v1.314c0 .253.1.455.404.455.196 0 .387-.053.556-.152l.152.506a1.416 1.416 0 0 1-.758.202c-.708 0-.96-.404-.96-1.061v-1.264h-.557v-.556h.607v-.86h.556v.86h1.01zm-9.707 2.275v-1.568c0-.505-.202-.758-.606-.758a.657.657 0 0 0-.708.759v1.567h-.607v-1.567c0-.506-.202-.759-.606-.759a.657.657 0 0 0-.657.759v1.516h-.607v-2.78h.607v.354a.91.91 0 0 1 .808-.405c.374-.012.724.182.91.506.204-.332.572-.526.96-.506a1.062 1.062 0 0 1 1.113 1.112v1.72z"/><path id="rzxvb" d="M1389.85 1977.148v-16.577h9.2v16.577z"/><path id="rzxvc" d="M1390.406 1968.862c0-3.242 1.493-6.3 4.046-8.293a10.566 10.566 0 1 0-.002 16.584 10.515 10.515 0 0 1-4.044-8.291z"/><path id="rzxvd" d="M1411.184 1975.383v-.404h-.102l-.1.303-.102-.303h-.1v.1l.1.254h.101l.101-.253v.303zm-.405-.303v.303zm-.253.303v-.354h-.05v.354zm1.011-6.521a10.566 10.566 0 0 0-17.087-8.291 10.566 10.566 0 0 1 0 16.582 10.566 10.566 0 0 0 17.087-8.291z"/></defs><g><g transform="translate(-1377 -1958)"><g><use xlink:href="#rzxva"/></g><g><g><use fill="#ff5f00" xlink:href="#rzxvb"/></g><g><use fill="#eb001b" xlink:href="#rzxvc"/></g><g><use fill="#f79e1b" xlink:href="#rzxvd"/></g></g></g></g></svg>