<svg xmlns="http://www.w3.org/2000/svg" xmlns:xlink="http://www.w3.org/1999/xlink" width="29" height="29" viewBox="0 0 29 29"><defs><path id="nuawa" d="M1330.853 1979.984c-.1.758-.707.758-1.314.758h-.303l.252-1.466a.202.202 0 0 1 .203-.152h.151c.405 0 .759 0 .96.203.143.21.162.48.051.707zm-.252-2.022h-2.174a.303.303 0 0 0-.304.252l-.859 5.561c0 .112.09.203.202.203h1.112c.112 0 .203-.09.203-.203l.252-1.567a.303.303 0 0 1 .304-.253h.707c1.416 0 2.275-.707 2.478-2.072a1.668 1.668 0 0 0-.253-1.416 2.022 2.022 0 0 0-1.668-.505z"/><path id="nuawb" d="M1315.333 1979.984c-.1.758-.708.758-1.314.758h-.304l.253-1.466a.202.202 0 0 1 .202-.152h.152c.405 0 .758 0 .96.203.143.21.162.48.051.707zm-.253-2.022h-2.173a.303.303 0 0 0-.304.252l-.91 5.612c0 .112.09.202.203.202h1.061a.303.303 0 0 0 .303-.253l.253-1.516a.303.303 0 0 1 .304-.253h.707c1.416 0 2.275-.708 2.478-2.073a1.668 1.668 0 0 0-.253-1.415 2.022 2.022 0 0 0-1.669-.556z"/><path id="nuawc" d="M1320.085 1982.006a1.163 1.163 0 0 1-1.162 1.011.809.809 0 0 1-.86-1.011 1.163 1.163 0 0 1 1.163-1.011.86.86 0 0 1 .708.303.91.91 0 0 1 .202.708zm1.466-2.022h-1.01a.202.202 0 0 0-.203.152v.202c-.312-.332-.76-.5-1.213-.455a2.376 2.376 0 0 0-2.326 2.072 1.972 1.972 0 0 0 .405 1.618c.338.36.822.547 1.314.506a1.972 1.972 0 0 0 1.466-.607v.303c0 .112.09.203.202.203h.96a.303.303 0 0 0 .304-.253l.556-3.59a.24.24 0 1 0-.455-.151z"/><path id="nuawd" d="M1335.656 1982.006a1.163 1.163 0 0 1-1.163 1.011.809.809 0 0 1-.86-1.011 1.163 1.163 0 0 1 1.164-1.011.86.86 0 0 1 .707.303.91.91 0 0 1 .152.708zm1.466-2.022h-1.062a.202.202 0 0 0-.202.152v.202c-.312-.332-.76-.5-1.213-.455a2.376 2.376 0 0 0-2.326 2.072 1.972 1.972 0 0 0 .405 1.618c.338.36.822.547 1.314.506a1.972 1.972 0 0 0 1.466-.607v.303c0 .112.09.203.202.203h.961a.303.303 0 0 0 .303-.253l.556-3.59a.216.216 0 1 0-.404-.151z"/><path id="nuawe" d="M1327.112 1979.984h-1.01a.303.303 0 0 0-.254.152l-1.466 2.123-.606-2.022a.303.303 0 0 0-.304-.203h-1.01a.202.202 0 0 0-.152.253l1.112 3.337-1.062 1.516a.202.202 0 0 0 .152.304h1.062c.104-.004.2-.061.252-.152l3.489-5.055a.202.202 0 0 0-.203-.253z"/><path id="nuawf" d="M1338.335 1978.164l-.91 5.662c0 .112.09.202.203.202h.91a.303.303 0 0 0 .303-.253l.86-5.56a.202.202 0 0 0-.203-.203h-1.011a.202.202 0 0 0-.152.152z"/><path id="nuawg" d="M1332.471 1962.34c.202-1.415 0-2.376-.758-3.235-.759-.86-2.326-1.365-4.297-1.365h-5.561a.809.809 0 0 0-.81.657l-2.325 14.863a.506.506 0 0 0 .455.556h3.489l-.253 1.517a.404.404 0 0 0 .404.505h2.932a.708.708 0 0 0 .708-.606v-.152l.556-3.488v-.202a.708.708 0 0 1 .708-.607h.455c2.83 0 5.055-1.163 5.713-4.5.252-1.364.151-2.527-.607-3.386a2.78 2.78 0 0 0-.809-.607"/><path id="nuawh" d="M1332.471 1962.34c.202-1.415 0-2.376-.758-3.235-.759-.86-2.326-1.365-4.297-1.365h-5.561a.809.809 0 0 0-.81.657l-2.325 14.863a.506.506 0 0 0 .455.556h3.489l.859-5.51v.152a.809.809 0 0 1 .809-.658H1326c3.236 0 5.763-1.314 6.522-5.106v-.354"/><path id="nuawi" d="M1324.433 1962.34a.708.708 0 0 1 .404-.505h4.702l1.466.101h.354l.354.101h.151l.607.253c.202-1.416 0-2.376-.758-3.236-.759-.859-2.326-1.364-4.297-1.364h-5.561a.809.809 0 0 0-.81.657l-2.325 14.913a.506.506 0 0 0 .455.556h3.489l.859-5.51z"/></defs><g><g transform="translate(-1311 -1957)"><g><g><use fill="#009ade" xlink:href="#nuawa"/></g><g><use fill="#002f87" xlink:href="#nuawb"/></g><g><use fill="#002f87" xlink:href="#nuawc"/></g><g><use fill="#009ade" xlink:href="#nuawd"/></g><g><use fill="#002f87" xlink:href="#nuawe"/></g><g><use fill="#009ade" xlink:href="#nuawf"/></g></g><g><g><use fill="#009ade" xlink:href="#nuawg"/></g><g><use fill="#002169" xlink:href="#nuawh"/></g><g><use fill="#002f87" xlink:href="#nuawi"/></g></g></g></g></svg>