<svg xmlns="http://www.w3.org/2000/svg" xmlns:xlink="http://www.w3.org/1999/xlink" width="14" height="20" viewBox="0 0 14 20"><defs><path id="3zo1a" d="M1296.263 1841.219l.046.078.045.08c2.784 4.86 7.593 7.72 8.484 6.226l1.126-2.136c.093-.183.078-.406-.04-.613l-.012-.012c-.157-.307-.3-.317-1.123-.86-.427-.321-.881-.67-1.181-.934-.291-.253-.708-.267-.947-.037l-.463.458a.832.832 0 0 1-.597.239c-.667-.011-1.944-1.812-2.655-2.922-.2-.316-.36-.58-.453-.74a19.43 19.43 0 0 1-.41-.765c-.597-1.175-1.505-3.187-1.177-3.768a.83.83 0 0 1 .507-.394l.63-.17c.32-.088.518-.455.447-.834-.075-.393-.147-.96-.207-1.49-.053-.986.01-1.115-.175-1.405l-.005-.017c-.118-.206-.303-.332-.507-.344l-2.412-.109c-1.743.013-1.704 5.61 1.079 10.469z"/></defs><g><g transform="translate(-1293 -1829)"><use fill="#14214e" xlink:href="#3zo1a"/><use fill="#fff" fill-opacity="0" stroke="#14214e" stroke-miterlimit="50" stroke-width="2" xlink:href="#3zo1a"/></g></g></svg>