<svg xmlns="http://www.w3.org/2000/svg" xmlns:xlink="http://www.w3.org/1999/xlink" width="39" height="13" viewBox="0 0 39 13"><defs><path id="skhfa" d="M1452.082 1973.765l.556-1.314 2.629-6.673a.253.253 0 0 1 .303-.202h3.084l-.657 1.516-4.399 10.414a.253.253 0 0 1-.252.203h-2.831c-.203 0-.304-.05-.354-.253l-2.477-9.504a1.466 1.466 0 0 0-.81-1.011 14.155 14.155 0 0 0-2.78-.91c-.1 0-.202 0-.151-.152.05-.152 0-.253.202-.253h5.207c.674.014 1.245.5 1.365 1.163l1.264 6.673z"/><path id="skhfb" d="M1463.204 1974.574a7.28 7.28 0 0 0 1.769.658c.75.166 1.526.166 2.275 0 .283-.069.544-.208.758-.405a.91.91 0 0 0 .05-1.314 3.893 3.893 0 0 0-1.162-.759 9.302 9.302 0 0 1-1.77-1.112c-1.668-1.365-1.314-3.286-.454-4.449a4.702 4.702 0 0 1 2.83-1.718 8.14 8.14 0 0 1 4.45.252c.151.05.202.101.151.304-.05.202-.354 1.567-.505 2.325a6.875 6.875 0 0 0-1.365-.455 4.803 4.803 0 0 0-2.023-.05c-.239.05-.463.153-.657.303a.758.758 0 0 0 0 1.314c.376.297.783.551 1.214.759a9.757 9.757 0 0 1 1.617 1.01 3.033 3.033 0 0 1 1.062 3.438 3.893 3.893 0 0 1-2.578 2.73 7.937 7.937 0 0 1-3.64.405 9.454 9.454 0 0 1-2.326-.506c-.202-.05-.252-.151-.202-.354.05-.202.303-1.567.506-2.376z"/><path id="skhfc" d="M1458.907 1977.709h-1.365c-.152 0-.203-.05-.152-.203l1.567-7.38.91-4.298c.05-.151.101-.202.202-.202h2.78c.152 0 .203.05.152.202l-2.477 11.628c-.05.152-.1.253-.253.202z"/><path id="skhfd" d="M1478.623 1973.361h-2.376l1.617-4.5.556 2.73.354 1.568c0 .151 0 .253-.151.253zm3.943 4.044l-2.427-11.627c-.05-.152-.1-.202-.253-.202h-2.376a1.466 1.466 0 0 0-1.516 1.01l-3.943 9.505-.658 1.567h3.135c.1 0 .151-.05.202-.152l.556-1.516a.202.202 0 0 1 .202-.152h3.69c.152 0 .152.05.203.152.05.1.202.96.303 1.466.101.505.101.202.253.202h2.427c.252.05.252.05.202-.253z"/></defs><g><g transform="translate(-1444 -1965)"><g><use fill="#2c317b" xlink:href="#skhfa"/></g><g><use fill="#2c317b" xlink:href="#skhfb"/></g><g><use fill="#2c317c" xlink:href="#skhfc"/></g><g><use fill="#2c317b" xlink:href="#skhfd"/></g></g></g></svg>